<svg xmlns="http://www.w3.org/2000/svg" viewBox="0 0 40 40"><defs><style>.cls-1{fill:#fff;}.cls-2{fill:none;}</style></defs><title>mavericks_website_icon_automaton</title><g id="automaton_40" data-name="automaton 40"><path class="cls-1" d="M27.573,9.988h0l-3.6,6.635c.363.028.783.046,1.148.044l.209.564c.076.185.169.364.255.545-.259.258-.515.533-.748.811a9.322,9.322,0,0,0,.783,1.167q.522-.165,1.032-.38l.405.443.444.406c-.143.34-.271.684-.38,1.031a9.15,9.15,0,0,0,1.167.784c.278-.233.553-.489.811-.748.181.086.36.179.545.254l.564.209c0,.372.016.73.048,1.1a8.95,8.95,0,0,0,1.379.274c.167-.322.322-.662.46-1l.6.03.246-.012,3.674,6.775H30.783c0-.105,0-.21-.012-.315l-.047-.391c.218-.11.421-.228.626-.355a5.938,5.938,0,0,0-.252-.887c-.238,0-.482.011-.722.031l-.162-.359-.2-.341c.156-.182.309-.373.447-.567a6.043,6.043,0,0,0-.573-.723c-.224.093-.437.189-.654.3l-.29-.266c-.1-.086-.207-.162-.311-.242.074-.228.141-.464.193-.7a6.014,6.014,0,0,0-.8-.446c-.17.167-.332.344-.488.529l-.368-.137-.38-.1q-.027-.361-.087-.715a6.111,6.111,0,0,0-.914-.108c-.093.219-.176.45-.25.678-.131,0-.263,0-.393.015l-.392.047c-.109-.218-.227-.421-.355-.626a5.929,5.929,0,0,0-.886.253c0,.237.01.482.031.721l-.359.162-.341.2c-.182-.157-.373-.309-.567-.447a6.258,6.258,0,0,0-.674.53l-.992-1.829L20,23.952l3.274,6.037H38.42Z"/><polygon class="cls-1" points="27.571 10 12.427 10 1.58 30 16.725 30 27.571 10"/><rect class="cls-2" width="40" height="40"/></g></svg>