<?xml version="1.0" encoding="utf-8"?>
<!-- Generator: Adobe Illustrator 19.1.0, SVG Export Plug-In . SVG Version: 6.00 Build 0)  -->
<svg version="1.1" id="Layer_1" xmlns="http://www.w3.org/2000/svg" xmlns:xlink="http://www.w3.org/1999/xlink" x="0px" y="0px"
	 width="32px" height="32px" viewBox="-289 381 32 32" style="enable-background:new -289 381 32 32;" xml:space="preserve">
<style type="text/css">
	.st0{fill:none;stroke:#FFFFFF;stroke-miterlimit:10;}
</style>
<title>mpg_web_icon_twitter</title>
<path class="st0" d="M-288.5,381.5h31v31h-31V381.5z M-276.4,388.1c-0.3,0-3.1,0.1-6,2.2c0,0-3.1,5.5-3.1,12.4c0,0,1.8,3.1,6.5,3.2
	c0,0,0.8-0.9,1.4-1.8c-2.7-0.8-3.7-2.5-3.7-2.5s0.2,0.1,0.6,0.4c0,0,0,0,0.1,0c0.1,0,0.1,0.1,0.2,0.1c0.5,0.3,1.1,0.5,1.6,0.7
	c0.9,0.4,1.9,0.7,3.1,0.9c1.6,0.3,3.5,0.4,5.5,0c1-0.2,2-0.5,3.1-0.9c0.7-0.3,1.6-0.7,2.5-1.3c0,0-1.1,1.7-3.9,2.5
	c0.6,0.8,1.4,1.7,1.4,1.7c4.7-0.1,6.5-3.2,6.5-3.2c0-6.8-3.1-12.4-3.1-12.4c-3.1-2.3-6-2.2-6-2.2l-0.3,0.3c3.6,1.1,5.3,2.7,5.3,2.7
	c-2.2-1.2-4.4-1.8-6.4-2c-1.5-0.2-3-0.1-4.3,0c-0.1,0-0.2,0-0.4,0c-0.7,0.1-2.6,0.3-4.9,1.3c-0.8,0.3-0.9,0.4-0.9,0.4
	s1.4-1.5,5.3-2.6L-276.4,388.1C-276.4,388.1-276.4,388.1-276.4,388.1L-276.4,388.1z M-277,396c1.2,0,2.2,1,2.2,2.4
	c0,1.3-1,2.4-2.2,2.4c-1.2,0-2.2-1-2.2-2.4C-279.2,397-278.2,396-277,396L-277,396z M-269.2,396c1.2,0,2.2,1,2.2,2.4
	c0,1.3-1,2.4-2.2,2.4c-1.2,0-2.2-1-2.2-2.4C-271.4,397-270.4,396-269.2,396L-269.2,396z"/>
</svg>
