<svg xmlns="http://www.w3.org/2000/svg" width="32" height="32" viewBox="0 0 32 32"><defs><style>.cls-1{fill:#fff;}</style></defs><title>mpg_web_icon_display_name</title><path class="cls-1" d="M30.624 22.293a2.587 2.587 0 0 1-.724 3.2 28.522 28.522 0 0 1-9.846 4.92 2.528 2.528 0 0 1-.675.091 2.594 2.594 0 0 1-1.883-.817 4 4 0 0 0 .623-.844 1.555 1.555 0 0 0 1.671.605 27.474 27.474 0 0 0 9.5-4.746 1.584 1.584 0 0 0 .442-1.958l-4.275-8.544.544-1.148zm-18.074-11.013l-5 10 .9.44 5-10zm3.45-6.69v-2.59h-1v7a.308.308 0 0 0 .01.1 1.5 1.5 0 1 0 1.99-1.51v1.41a.5.5 0 0 1-1 0v-3.33a26.964 26.964 0 0 1 6.29 3.63 1.587 1.587 0 0 1 .44 1.96l-8.62 17.29a1.562 1.562 0 0 1-1.83.82 27.448 27.448 0 0 1-9.5-4.74 1.587 1.587 0 0 1-.44-1.96l8.62-17.29a1.582 1.582 0 0 1 1.42-.88 1.507 1.507 0 0 1 .41.06c.41.11.81.23 1.21.36v-1.04c-.31-.11-.63-.2-.95-.29a2.565 2.565 0 0 0-2.98 1.34l-8.62 17.29a2.592 2.592 0 0 0 .72 3.2 28.505 28.505 0 0 0 9.85 4.92 2.573 2.573 0 0 0 2.98-1.34l8.62-17.29a2.592 2.592 0 0 0-.72-3.2 27.843 27.843 0 0 0-6.9-3.92zm-1.2 10.19l-3.5 7 .9.44 3.5-7z" id="dogtag"/></svg>