<svg xmlns="http://www.w3.org/2000/svg" width="32" height="32" viewBox="0 0 32 32"><defs><style>.cls-1{fill:#fff;fill-rule:evenodd;}.cls-2{fill:none;}</style></defs><title>mpg_web_icon_email</title><g id="_"><path class="cls-1" d="M20 19.69v-4.69h-7.33l-1.67 1.82v2.36l1.91 2.82h4.78zm6.73 1.04l-2.15 2.27h-2.33l-1.67-2.3-2.36 2.3h-6l-2.22-3.33v-3.14l2.22-2.53h7.78v-3.2l-1.83-1.8h-4.43l-2.46.83-.3-.93 2.69-.9h4.75l2.58 2.43v8.95l1.81 2.62h1.25l1.94-2v-12.46l-2.54-2.54h-14.92l-2.54 2.54v16.92l2.54 2.54h14.46v1h-14.88l-3.12-3.12v-17.76l3.12-3.12h15.76l3.12 3.12v13.33z" id="_Group_"/><path class="cls-2" d="M-34-34h100v100h-100zM0 0h32v32h-32z"/></g></svg>