<svg xmlns="http://www.w3.org/2000/svg" width="256" height="256" viewBox="0 0 256 256">
  <title>mpg_icon_ui_faction_col</title>
  <g id="d480dacb-6710-4088-88d1-06b85680425f" data-name="col">
    <path d="M177.039,235.542c.313.939,1.039.971,1.519,1.828,0,0,1.571,1.636,1.7,1.258q-.5-1.47-1.006-2.941a15.027,15.027,0,0,0,1.414,2.478,14.529,14.529,0,0,1-1.234-3.972,14.119,14.119,0,0,0,2.4,4.013,36.152,36.152,0,0,1-2.376-5.155c.5.843,1.676,2.535,1.7,3.478.313-1.4-1.679-4.757-2.011-5.885,1.13,2.422,2.024,4.794,2.918,7.316-.659-.822-.832-5.1-.828-5.079a16.667,16.667,0,0,1-1.057-3.02c-.741-1.459-2.061-4.514-2.821-5.964-.811-2.364-2.8-4.941-3.6-7.237-.131,1.852,1.441,3.369,1.887,5.091-1.534-3.212-4.064-6.739-4.753-10.313q.573,1.3,1.221,2.564c-.483-3.825-5.11-10.793-7.846-16.039-3.788-6.179-8.531-15.9-10.292-22.994,1.624,6.543,5.67,13.665,8.914,20.065-.576-1.452-.807-2.6-.464-3.271-1.028-2.448-1.872-3.88-4.059-8.928-.912-2.1-1.751-4.346-2.71-6.421-.149-.321-4.018-9.844-2.367-5.09,0,0-.963-1.9-1.4-2.809a29.229,29.229,0,0,1-3.07-6.571c.2.313,2.354,4.345,2.6,5-.669-1.3-.257-1.4-1.113-2.7-.215-.576-2.031-3.287-2.5-4.543-2.17-4.582-4.029-9.38-6.055-14.031-.972-2.232-3.376-6.363-2.471-6.32-.372-1.023-1.114-2.5-1.473-3.527a9.991,9.991,0,0,0,.48,1.991c.029.056-2.566-6.207-2.54-6.213-.3-.7-.333-.624-.829-1.6a24.157,24.157,0,0,1-1.642-3.381c2.581,5.775,4.6,11.492,7.288,17.244-2.448-3.153-6.291-12.924-7.11-14.292a17.846,17.846,0,0,0-2.14-4.279q.7,1.473,1.362,2.968c-.467-.893-1.254-2.335-1.707-3.417-1.271-3.036-2.155-6.236-2.864-8.485.523.9,1.018,1.815,1.507,2.736-.578-1.357-1.508-4.256-1.848-5.48a7.463,7.463,0,0,1,1.622,2.416c-.305-.782-1.2-3.219-1.534-3.977-1.358-3.072-4.073-7.667-5.633-11.239-.456-1.046-.879-2.326-1.243-3.362-.271-.671-.555-1.734-.96-2.694-1.128-2.2-2.886-5.7-3.331-6.932.3.5,1.835,3.313,2.818,5.292.71,1.755,1.8,3.572,2.595,5.293-.919-2.392-2.492-5.151-2.915-7.742q1.607,4.086,3.318,8.128c-.237-1.908-1.977-3.684-1.97-5.621q1.107,2.895,2.459,5.685c-2.388-5.353-3.847-11.092-7.084-16.056.782,2.094,2.369,3.854,2.8,6.1-.773-1.349-1.226-2.277-1.97-3.643a23.777,23.777,0,0,0-1.753-3.18c.447,1.093.889,2.289.917,2.423q-.921-1.564-1.792-3.157a41.631,41.631,0,0,1,2.418,5.421c-2.68-4.1-3.93-8.746-6.257-10.585a13.417,13.417,0,0,1,1.187,3.522,4.468,4.468,0,0,0-1.5-2.158c.334.855,1.052,1.3,1.052,2.358-.366-.549-1.5-2.275-2.26-3.718-1.8-1.989,0,2.8.706,2.768.387.961.666,1.207.993,2.189.46,1.934,1.215,2.2,1.593,4.233-.6-1.9,1.8,5.413,2.219,6.64-1.454-3.524-2.668-7.37-4.73-10.606a29.2,29.2,0,0,1,1.426,3.886c-.582-1.564-2.4-3.95-1.513-3.564a36.885,36.885,0,0,0-2.583-5.058c-.531-.876-.445.778-1.092-.11-.618-1.084-.883-.608-1.433-1.728.657,1.786,1.814,5.961,1.979,6.595-.784-1.674-1.575-3.863-3-5.229,1.243,2.334.3,3.044.3,3.044.292.941,1.674,2.709,1.523,3.843a33.94,33.94,0,0,0,1.009,4.546,33.126,33.126,0,0,0-3.447-6.569c2.993,6.562,4.912,13.642,7.548,20.371q-.471-1.6-.835-3.221c-.685-.709-1.964-4.766-.941-2.486a16.115,16.115,0,0,1,1.272,3.025c.244.783,1.379,3.532,1.379,3.532a19.2,19.2,0,0,1,1.841,4.721c1.367,2.46,1.813,5.429,3.02,7.977-1.2-1.12-1.341-2.618-2-4.053a14.045,14.045,0,0,0-1.011-3.8c-.625-.576-1.378-2.836-1.673-4.13-.3,1.477,1.7,4.828,1.649,6.325,1.191,1.806,2.782,6.819,3.823,8.69a36.108,36.108,0,0,0,2.026,3.621,21.085,21.085,0,0,1-1.343-3.357c.7,1.437,1.091,2.905,1.66,4.4a34.13,34.13,0,0,1,2.586,5.291,11.392,11.392,0,0,1,1.311,3.371c.312.831.8,1.963,1.133,2.788,1.645,3.87,3.721,8.741,5.475,12.631-.484-.252,1.882,1.917,1.915,3.949a29.95,29.95,0,0,0-1.43-3.033c2.458,10.6,9.794,19.873,13.187,30.427,2.038,4.333,4.092,8.341,5.984,12.732.46,1.065,3.576,7.286.992,3.035.366.6,1.623,4.977,1.443,2.942a13.389,13.389,0,0,0,.831,2.032c.482.985.573,1.437,1.056,2.421.279.74,1.577,3.9,1.79,4.422.972,2.364,2.039,4.708,3.046,7.059.019.062.622,1.426,1.388,3.158.491.951,1.149,2.514,1.364,3.067a50.517,50.517,0,0,0-2.852-4.851c1.705,2.805,2.1,5.234,3.527,8.117.37,1.56.911,1.884,1.888,3.114a8.918,8.918,0,0,1-1-2.477c1.16,2.586,1.986,5.753,3.589,8.1a24.79,24.79,0,0,1-1.449-3.592,42.5,42.5,0,0,1,1.828,4.271c-1.059.635-3.694-7-4.53-8.436,1.827,5.321,4.278,9.2,7.269,13.714.063-1.522,1.728,3.684,2.97,5.455a32.592,32.592,0,0,0-1.1-3.48,23.429,23.429,0,0,0-1.1-2.821c-.683-1.078-.509-2.079-1.037-3.554-.371-.682,1.555,4.791,1.9,3.393.753,2.17,2.215,3.6,3.041,5.322-1.182-2.563-2.747-4.781-3.358-7.583-.013,1.236,3.6,7.891,2.992,3.611,1.069,1.654,1.4,3.515,2.441,5.127a21.024,21.024,0,0,1-1.228-4.583c.094,1.126,2.13.86,1.974,1.951l-.951-.667c.535,1.256,2.385,2.841,2.688,4.735.515-.641-.676-2.755-.534-3.436A43.077,43.077,0,0,1,177.039,235.542Zm59.5-94.911c.151-1.62.265-3.305.391-5l-1.02,7.568c.435-5.057,1.19-10.84,1.414-15.916-.031-1.156-.084-3.1-.035-3.53-.168-4.922-.374-11.136-1.258-15.649a58.4,58.4,0,0,0-3.34-14.426,45.707,45.707,0,0,1,1.688,6.8c-.195-.888-1.306-4.328-.723-2.949-.841-2.493-1.645-5.369-2.648-7.807a69.047,69.047,0,0,1,2.505,8.536c-1.226-4.224-2.727-8.329-4.279-12.441,1.872,4.262.125.32,1.3,2.322-.453-1.376-1.352-2.844-1.785-4.256-1.463-3.225-3.547-6.061-4.935-9.347,2.811,5.438-.477-2.189-1.613-3.227,1.867,3.662,3.406,7.683,4.144,9.328a165.692,165.692,0,0,0-9.189-16.626,41.992,41.992,0,0,0-2.7-3.889,106.345,106.345,0,0,0-14.565-15.276c-.587-.054-3.012-2.6-4.861-4.057-1.975-1.558-3.745-2.937-5.767-4.331-.922-1.263-3.038-2.375-5.239-3.4-8.879-5.859-19.6-9.564-29.863-12.352,3.231.912,6.435,1.956,9.59,3.056-3.626-1.143-7.309-2.355-11.011-3.246-.916-.221-7.266-1.364-6.193-1.348-14.92-1.471-27.809-1.5-42.731,1.11a107.371,107.371,0,0,0-41.1,18.67c-2.364,2.035-9.284,6.746-5.767,4.641a47.118,47.118,0,0,0-5.36,4.944,27.308,27.308,0,0,1,2.2-2.512c-1.6,1.332-7.653,9.8-5.734,5.549a117.505,117.505,0,0,0-17.33,23.283c-1.591,2.819-3.066,5.77-4.387,8.726-.916,2.419-3.067,7.665-3.6,9.694a51.8,51.8,0,0,1,1.882-5.631,100.2,100.2,0,0,0-4.509,14.413,82.4,82.4,0,0,1,4.257-14.974,111.215,111.215,0,0,0-5.709,16.942c.276-.886.886-2.5.956-2.627a21.589,21.589,0,0,0-.608,3.3,20.653,20.653,0,0,1,1.056-3.524c-.137.877-.424,2.648-.595,3.7-.467,2.859-1.025,5.909-1.4,6.389a72.41,72.41,0,0,0-1.242,16.018c.121-3.092-.233-6.948.65-9.984-.606,3.829.376,8.281-.631,11.987a9.074,9.074,0,0,1-.192-3.343c-.3,2.755-.149-6.531-.028-8.056.355-4.471,1.811-8.863,2.107-13.246a71.36,71.36,0,0,0-2.814,19.94,53.2,53.2,0,0,0,.58,9.582,12.045,12.045,0,0,1,.367,2.6,52.84,52.84,0,0,0,1.671,7.755c.11-6,.176,1.014.529,2.61.408,1.848.864,3.693,1.315,5.531a116.753,116.753,0,0,0,3.28,11.816c.519,1.979,3.986,11.13,2.864,6.85a52.406,52.406,0,0,0,3.164,6.407,25.9,25.9,0,0,1-1.728-2.766c.781,1.79,7.049,10.042,3.571,6.936A181.194,181.194,0,0,0,43.847,199.7c.97,1,1.866,2.127,2.769,3.216q1.494,1.647,3.1,3.206c3.108,1.647,5.916,6.117,8.655,8.288a116.469,116.469,0,0,0,12.406,8.4c-6.095-3.331-14.191-7.433-18.368-13.094,4.418,5.987,13.449,11.423,19.969,15.2-.68-.463-2.233-1.708-2.332-1.816a20.891,20.891,0,0,0,2.891,1.573,21.307,21.307,0,0,1-3.073-2.132c2.919,1.418,8.224,3.944,8.67,4.828,4.82,2.736,10.009,5.262,14.9,6.044a56.74,56.74,0,0,1-9.133-3.607c3.556,1.705,7.463,2.5,11.024,4.146a8.809,8.809,0,0,1-3.206-.745c3.3,1.439-3.84-.91-4.111-1a70.643,70.643,0,0,1-8.028-3.355,98.74,98.74,0,0,0,10.631,4.681,63.547,63.547,0,0,0,10.143,2.431,81.494,81.494,0,0,0,9.259,1.146c-6.678-2.512,7.623,1.552,7.6,1.456,2.572-.073,3.92.005,7.976-.4a13.587,13.587,0,0,1-4.7-1.207c.459,1.281-2.688.651-3.434.535,4.806.489-4.271-.8-4.271-.8-.973-.139-2.119-.432-3.047-.581a18.761,18.761,0,0,1-4.358-1.047c-2.143-.651-3.333-.805-5.389-1.373a11.2,11.2,0,0,1-2.606-1.151c1.021.323,1.737.55,2.78.79,1.1.253,2.031.367,4.1.808,1.726.367,8.977,2.993,5.03,1,1.567.339,3.293.92,4.651,1.272-.882-1.272.973-1.054,3.59.2,0,0,3.571.19,6.032.191,0,0,1.96-.456,2.709-.514a23.641,23.641,0,0,0-2.952.021l2.562-.235a6.7,6.7,0,0,1-2.539-.256,11.156,11.156,0,0,0,3.184-.084,28.865,28.865,0,0,1-3.976-.242c.8-.4,2.7-.038,3.562-.059-1.253-.366-1.514-1.369-2.842-1.375a19.171,19.171,0,0,0,2.176.3c2.784-.024,6.3,2.365,2.413.1-1.048.255-1.005.045-1.509-.695.849.012,5.493-.718,4.556-.718q1.857-.151,3.719-.14c-1.018-.73-5.415-1.253-7.083-1.384.533.383-1.389-2.684-.222-2.917-.509-1.278-2.375-2.8-2.493-3.772-.229-.909-1.062-1.613-1.521-2.4-.411,1.008.431.942.531,1.905-.719-1.411-2.508-3.5-2.494-5.247,1.368,3.24-.628-1.879-.955-2.646-.869-2.041-1.97-4.107-2.891-6.188-.177-.4-.662-2.212-1.11-3.792-.794-2.8-2.1-6.485-3.735-8.067-.717-1.5-1.556-1.864-1.552-3.306-.486-1.6-1.615-2.044-1.369-2.039a35.352,35.352,0,0,1-2.1-5.368,30.243,30.243,0,0,0-2.914-6.938L103.306,177c1.186,2.725,1.655,4.577,2.713,7.151-.205-.447-3-5.289-4.773-9.085a48.36,48.36,0,0,1,1.906,4.618c.831.926.748,1.559,1.338,2.589-.6.859.215,2.52.684,3.046-.774-.8-1.462-3.112-1.824-4.516a5.174,5.174,0,0,1-1.126-2.577c-.355-.794-1.277-2.953-1.662-3.717-.714-1.58-.428-4.1-.554-4.728.728,1.618,1.506,2.2,1.728,2.014a15.2,15.2,0,0,1-2.02-3.82c-.479-1.3-.837-2.745-1.459-4.355-.96-2.483-3.807-7.1-.8-2.633a8.377,8.377,0,0,1-.889-3.032c.293.792.985,2.066,1.3,2.85-1.222-2.742-1.211-5.609-3.265-7.94a10.47,10.47,0,0,1,1.462,3.107,38.811,38.811,0,0,1-2.44-3.335,8.079,8.079,0,0,1,.824,2.465c-.884-1-3.933-3.406-4.224-4.772.5,2.259.343,2.456-.561,2.137a3.626,3.626,0,0,1,.508,2.755c-.518-1.7-2.755-3.071-3.512-4.673.217.454-.677,2.77-.627,3.247a4.993,4.993,0,0,0-1.984-2.727c.377.607,1.112,7.654,1.312,7.074a21.86,21.86,0,0,0,1.21,4.953c-1.255-2.848-1.494-6.55-3.8-8.858,1.57,3.366,2.625,9.162,3.821,12.662,2.118,2.357,2.2,9.6,3.289,7.93.288.457,1.976,4.321,1.976,4.321-.365-.434,2.93,7.352,3.855,9.383.337,5.275,5.607,10.575,6.725,15.828,1.113,2.251,4.689,8.058,4.792,10.688,0,0,3.866,7.851,3.148,9.23-.015-.032-3.456-.773-6.248-1.376-2.44-.526-5.4-1.174-5.577-1.247a21.231,21.231,0,0,1-5.128-2.016c-1.244-.527-.916-.305-2.154-.846-3.565-1.558-5.672-2.081-9.171-3.847-1.348-.343-1.332-.635-2.48-1.329-1.031-.557-1.741-1.059-2.722-1.7,2.967,2.893,7.134,3.935,10.6,6.09-7.251-3.686-16.263-7.127-21.782-13.442A48.7,48.7,0,0,0,70.6,208.01c-15.48-12.881-30.23-27.642-35.962-47.925a11.049,11.049,0,0,0,1.217,2.649,44.551,44.551,0,0,1-4.042-12.258c-.864-2.668-.4-3.727-.711-6.093.1.669.45.78.9,2.624-.524-2.993-.218-8.584-1.64-11.18a61.11,61.11,0,0,0,.749,6.762,5.536,5.536,0,0,1-.629-3.334,105.815,105.815,0,0,1-.927-10.727,44.586,44.586,0,0,1,.4-5.583,16.255,16.255,0,0,1,.085-2.526c.2-2.412.44-7.777,1.237-13.261.633-4.346,1.594-8.75,2.724-10.354A20.686,20.686,0,0,1,35,94.2c-.113.317.93-1.528.653-.667.8-1.993,2.812-6.846,2-4.677.366-3.073,2.773-6.089,4.225-8.734,1.344-2.449,6.514-11.494,2.6-4.34,1.863-2.867,2.313-3.619,4.377-6.492.706-1.042,1.292-1.723,2.125-2.892,5.045-7.081,11.657-15.179,17.65-16.727a15.677,15.677,0,0,1,3-1.924c.921-.538,1.351-.923,2.244-1.532a18.761,18.761,0,0,1-2.841,1.32c2.436-1.634,4.983-3.389,7.583-4.835-1.675,1.018,5.148-2.56,5.148-2.56,2.666-1.116,4.811-2.271,7.444-3.4,2.663-1.049,5.224-1.975,5.679-2.111,1.746-.548,3.2-.957,4.965-1.435a16.541,16.541,0,0,1,2.236-.588s8.957-1.643,4.513-1.219c1.464-.276,5.7-1.8,2.733-.181a23.065,23.065,0,0,1,4.184-.481c1.147-.192,2.37-.4,3.56-.488,1.233-.116,1.729-.187,2.962-.3,0,0,8.8-.183,8.752.084a41.894,41.894,0,0,0-5.649.066c2.969.044,6.169.188,8.955.309-1.574-.228-1.925-.493-3.5-.614a27.568,27.568,0,0,1,4.605.124c2.063.079,4.084.575,6.125.856.9.123,1.231-.007,2.134.09,1.058.231,2.115.471,3.166.731a86.28,86.28,0,0,1,15.2,4.015,72.493,72.493,0,0,1,23.991,13.327,117,117,0,0,0-14.813-8.792c2.573,1.241,9.327,5.4,3.884,2.312-1.13-.629-2.185-1.363-3.24-1.881a23.574,23.574,0,0,1,2.069,1.628c-2.038-1.163-4.854-2.436-7-3.4a63.027,63.027,0,0,1,11.8,6.553c-2.2-1.383-3.941-2.212-6.255-3.413a103.042,103.042,0,0,1,10.278,6.481c2.751,2.117,4.115,2.151,6.7,4.54,1.042.963,1.272.727,2.863,1.78a53.858,53.858,0,0,1-4.553-4.276c6.524,4.8,12.586,9.9,17.362,16.5A51,51,0,0,1,210.161,74a21.733,21.733,0,0,0-3.041-4.794,18.128,18.128,0,0,1,1.61,2.02c-.763-1.174-.74-1.927-1.545-3.128-.835-.856-.675-1.259-1.314-2.278a20.119,20.119,0,0,1-2.74-3.844,77.327,77.327,0,0,1,5.757,7.313,29.494,29.494,0,0,1,4.975,7.127c1.056,1.785,1.784,3.4,2.918,5.112.795,1.4,1.249,2.633,1.945,4.083-.425-.6-1.2-1.911-2.066-3.425a132,132,0,0,1,4.983,13.247A126.756,126.756,0,0,0,213.535,79.1c.6,1.079,1.125,2.113,1.322,2.423.929,1.993,2.331,4.794,3.076,6.408.9,1.943,1.822,3.851,2.592,5.849.6,1.559.874,2.223.874,2.223.473,1.273.089,1.785.388,3.167.314.971.655,1.757.941,2.755a26.293,26.293,0,0,1,.844,3.369,28.868,28.868,0,0,1,1.214,5.067,23.136,23.136,0,0,1,.6,3.727c.136,1.01.466,3.576.6,4.593a96.915,96.915,0,0,1,.359,13.764,70.27,70.27,0,0,1-1,8.626,33.538,33.538,0,0,1-.505,4.905,79.816,79.816,0,0,1-5.826,18.332,141.965,141.965,0,0,0,5.5-17.938c.174-.817-.142-.011-.072-1.075-.419,1.486-1.207,4.032-1.748,5.439.486-2.356,1.085-4.727,1.54-7.115.106-.9.257-1.823.441-2.752.115-.919.2-1.841.228-2.766-.746,6.122-1.822,12.386-4.18,18.125a76.032,76.032,0,0,0,1.932-7.354,65.715,65.715,0,0,0,1.806-12.567,114.876,114.876,0,0,1-11.467,37.424c2.645-4.227,4.086-9.24,6.135-13.756-1.255,3.285-1.674,5.53-3.281,8.69-1.751,2.88-1.981,4.8-3.251,7.534,1.09-2.181,2.339-4.565,2.634-5.049.849-1.674,1.67-3.169,2.6-4.8a63.071,63.071,0,0,1-7.794,14.717c-.416-3.47-3.652-8.453-5.087-11.5.185.393-2.843-9.068-4.782-11.06,0,0-1.876-2.329-2.012-3.831.514.753.752.757,1.11,1.577-.488-1.6-1.677-2.305-1.433-2.3a35.472,35.472,0,0,1-2.1-5.366,30.315,30.315,0,0,0-2.915-6.941l-1.821-3.742c1.193,2.738,1.664,4.6,2.727,7.186.02-.016-2.92-5.13-4.787-9.12a48.341,48.341,0,0,1,1.906,4.617c.831.927.748,1.558,1.337,2.589-.6.859.215,2.519.685,3.046-.773-.8-1.462-3.112-1.824-4.516a5.184,5.184,0,0,1-1.127-2.577c-.354-.794-1.276-2.954-1.661-3.718-.715-1.58-.429-4.1-.555-4.727.728,1.617,1.507,2.2,1.729,2.014a15.246,15.246,0,0,1-2.02-3.819c-.479-1.3-.837-2.744-1.46-4.356-.959-2.483-3.806-7.1-.8-2.633a8.4,8.4,0,0,1-.888-3.031c.292.791.985,2.066,1.3,2.849-1.223-2.742-1.211-5.609-3.266-7.94a10.415,10.415,0,0,1,1.462,3.106,38.855,38.855,0,0,1-2.439-3.334,8.079,8.079,0,0,1,.824,2.465c-.889-1.007-3.926-3.4-4.224-4.772.5,2.257.344,2.457-.561,2.137a3.636,3.636,0,0,1,.508,2.755c-.519-1.7-2.756-3.071-3.512-4.673.217.454-.677,2.77-.627,3.247a5,5,0,0,0-1.985-2.727c.378.607,1.113,7.654,1.313,7.074a21.808,21.808,0,0,0,1.21,4.953c-1.255-2.847-1.494-6.552-3.8-8.858,1.568,3.368,2.626,9.161,3.822,12.662,2.118,2.356,2.2,9.6,3.289,7.93.288.457,1.976,4.322,1.976,4.322-.364-.434,2.931,7.352,3.855,9.382.338,5.275,5.607,10.576,6.725,15.828,1.112,2.251,4.689,8.058,4.792,10.688.818,1.918,3.685,8.845,4.958,12.019-.341-.733-1.782-2.88-2.252-3.584.935,1.312,1.806,2.1,1.843,3.629.471,1.045,2.227,4.469,2.372,5.126,1.624.991,1.57,4.38.782,5.684a5.067,5.067,0,0,1,2.161-1.51c-1.434,1.523-2.752,3.233-4.155,4.785,0-.016,1.582-1.5,2.869-2.711.982-1.087,2.39-2.473,2.752-2.029-1.518,1.773-.332.632-1.734,2.566a45.856,45.856,0,0,1,7.112-4.905c.9-2.474,7.792-9.274,8.508-10.326a105.027,105.027,0,0,0,16.159-40.118c-.958,2.631-1.048,5.489-2.109,8.082a53.28,53.28,0,0,1-1.968,6.465,55.457,55.457,0,0,1,2.1-7.624c-.223-2.648,1.922-8.99,2.511-11.5a11.745,11.745,0,0,0-.282,3.286q.432-3.27.7-6.555Q236.935,138.688,236.54,140.631Z" fill="#fff"/>
  </g>
</svg>
