<svg xmlns="http://www.w3.org/2000/svg" width="256" height="256" viewBox="0 0 256 256">
  <title>mpg_icon_ui_faction_itr</title>
  <g id="faf7bbf8-e359-4a62-a4d9-cc5f1bbc33e1" data-name="itr">
    <path d="M96,109.52l32-18.4,32,18.4v36.96l-32,18.4-32-18.4ZM48,137.28v55.36l-16,9.2V118.8l16-9.28L104,77.2,80,63.36,32,91.04l-16-9.2,72-41.6,16,9.28,56,32.32V54.08L112,26.4V7.92l72,41.6v83.04l24-13.84V63.36l16-9.2V137.2l-16,9.28L152,178.8l24,13.84,48-27.68,16,9.2-72,41.6-16-9.28L96,174.16v27.76l48,27.68v18.48l-72-41.6V123.44Z" fill="#fff" fill-rule="evenodd"/>
  </g>
</svg>
