<svg id="1f262761-91ef-456c-b12a-6d8eb45d6014" data-name="12 reload" xmlns="http://www.w3.org/2000/svg" width="128" height="128" viewBox="0 0 128 128">
  <title>mpg_icon_hud_info_reload_02</title>
  <g id="78b8bb5a-04c5-4ba1-99b0-6b78146a79a2" data-name="reload">
    <path d="M7.33,70.89l-1.56-2.6,9.47-11.94a1.47,1.47,0,0,1,2.27.06l9.5,13.4-1.76,2.4L18.06,62.08a45.989,45.989,0,0,0,89.58,16.47l3.8,1.26c-6.83,20.56-27.24,37.12-53.64,33.8A50.34,50.34,0,0,1,14.03,62.44Z" fill="#fff"/>
    <path d="M109.94,65.92A45.989,45.989,0,0,0,20.36,49.45l-3.8-1.26C23.39,27.63,43.8,11.07,70.2,14.39a50.34,50.34,0,0,1,43.77,51.17l6.7-8.45,1.56,2.6-9.47,11.94a1.47,1.47,0,0,1-2.27-.06l-9.5-13.4,1.76-2.4Z" fill="#fff"/>
  </g>
</svg>
