<svg xmlns="http://www.w3.org/2000/svg" width="256" height="256" viewBox="0 0 256 256">
  <title>mpg_icon_ui_faction_lsf</title>
  <g id="ab13c1fa-0a4c-4a52-aa62-595679f06adf" data-name="lsf prev">
    <g id="1133e269-1492-41b7-8d53-d44580890f82" data-name="&lt;Group&gt;">
      <path d="M176,135.36l-32,3.92-7.6.88-34.08,4.24-8.4,1.04a21.152,21.152,0,0,0-18.08,23.52c1.28,10.56,11.6,18.48,22.24,18.48,5.6-.72,11.92-3.6,15.36-8.08a20.74,20.74,0,0,0,4.32-15.6,23.946,23.946,0,0,0-1.36-5.36l-5.2-12.72,4.4-.56a24.716,24.716,0,0,1,8.72.56L136,148.56a8.062,8.062,0,0,1,5.68,5.52,63.257,63.257,0,0,1,1.28,6.56,46.513,46.513,0,1,1-52.24-40.4l84-10.32c.96-.08,1.92-.24,2.88-.32a20.792,20.792,0,0,0,18-23.04c-1.28-10.32-11.36-18-21.76-18-5.44.72-11.6,3.52-14.96,7.84a20.861,20.861,0,0,0-4.24,15.2,20.423,20.423,0,0,0,1.44,5.36l5.12,12.48L134,112.8l-2.96-7.6A46.513,46.513,0,1,1,212,116.16C204.64,126.24,188.64,133.6,176,135.36Z" fill="#fff"/>
      <path d="M179.28,152c1.2,12.32-.8,25.2-4.24,37.2a80.778,80.778,0,0,1-144,23.76c-23.28-33.36-16.963-78.092,12.4-106.4C62,88.667,68.667,79.333,48.914,61.256c-7.4-6.769-11.581-3.423-14.594-3.816-8.352-1.09-15.84-7.36-23.04-18.72C8.24,33.76.72,21.84,6,16.24c5.04-5.28,15.36-.24,21.68,2.88C38.8,24.72,48,29.76,50.8,39.04c.96,3.12,11.52,9.76,15.04,13.04C75.44,60.96,88,73.333,88,83.667c0,8.833-5.9,18.489-15.667,27.293C57.494,124.338,40,146.64,40,168a56,56,0,0,0,112,0,57.047,57.047,0,0,0-6.64-26.56l4-.4a24.182,24.182,0,0,1,9.28.56l14.72,3.68A7.849,7.849,0,0,1,179.28,152Z" fill="#fff"/>
      <path d="M208.48,133.52C222.115,122.825,232,106.8,232,88a56,56,0,0,0-112,0,53.89,53.89,0,0,0,1.2,11.44c.24,1.12.4,2.16.72,3.2a58.551,58.551,0,0,0,2.24,6.96c.56,1.44,1.2,2.8,1.92,4.24l-26.48,3.2a79.127,79.127,0,0,1,15.84-83.28,79.536,79.536,0,0,1,133.92,78.56c-2.72,8.48-5.849,16.057-10.24,22-5.12,6.93-15.48,12.89-17.8,16.41-6.57,7.02-5.72,14.749-5.72,23.43a29.192,29.192,0,0,0,14.64,22.08,74.13,74.13,0,0,0,9.2,4.32c4.24,1.84,8.72,3.68,7.84,8.32s-6.88,4.64-9.44,4.64a36.466,36.466,0,0,1-10.32-1.44,49.745,49.745,0,0,1-25.12-21.36C192.08,172.56,192.25,146.25,208.48,133.52Z" fill="#fff"/>
    </g>
  </g>
</svg>
