<svg xmlns="http://www.w3.org/2000/svg" width="32" height="32" viewBox="0 0 32 32"><defs><style>.cls-1{fill:#fff;}.cls-2{fill:none;}</style></defs><title>mpg_web_icon_instagram</title><g id="instagram"><path class="cls-1" d="M32,32H0V0H32ZM1,31H31V1H1Z"/><path class="cls-1" d="M16,6c2.95,0,3.335.012,4.49.065a7.145,7.145,0,0,1,2.353.445A4.614,4.614,0,0,1,25.49,9.157a7.145,7.145,0,0,1,.445,2.353C25.988,12.665,26,13.05,26,16s-.012,3.335-.065,4.49a7.145,7.145,0,0,1-.445,2.353,4.614,4.614,0,0,1-2.647,2.647,7.145,7.145,0,0,1-2.353.445C19.335,25.988,18.95,26,16,26s-3.335-.012-4.49-.065a7.145,7.145,0,0,1-2.353-.445A4.614,4.614,0,0,1,6.51,22.843a7.145,7.145,0,0,1-.445-2.353C6.012,19.334,6,18.949,6,16s.012-3.334.065-4.49A7.145,7.145,0,0,1,6.51,9.157,4.614,4.614,0,0,1,9.157,6.51a7.145,7.145,0,0,1,2.353-.445C12.665,6.012,13.05,6,16,6m0-1c-2.987,0-3.362.013-4.535.066a8.108,8.108,0,0,0-2.67.511A5.625,5.625,0,0,0,5.577,8.8a8.108,8.108,0,0,0-.511,2.67C5.013,12.638,5,13.013,5,16s.013,3.362.066,4.535a8.108,8.108,0,0,0,.511,2.67A5.625,5.625,0,0,0,8.8,26.423a8.108,8.108,0,0,0,2.67.511C12.638,26.987,13.013,27,16,27s3.362-.013,4.535-.066a8.108,8.108,0,0,0,2.67-.511,5.619,5.619,0,0,0,3.217-3.218,8.079,8.079,0,0,0,.512-2.67C26.987,19.362,27,18.987,27,16s-.013-3.362-.066-4.535a8.079,8.079,0,0,0-.512-2.67,5.619,5.619,0,0,0-3.217-3.218,8.108,8.108,0,0,0-2.67-.511C19.362,5.013,18.987,5,16,5Z"/><path class="cls-1" d="M16,11.885A4.115,4.115,0,1,1,11.885,16,4.12,4.12,0,0,1,16,11.885M16,11a5,5,0,1,0,5,5,5,5,0,0,0-5-5Z"/><circle class="cls-1" cx="22" cy="10" r="1"/><rect class="cls-2" x="-104" y="-104" width="240" height="240"/><line class="cls-2" x1="16" y1="16" x2="22" y2="10"/></g></svg>