<svg xmlns="http://www.w3.org/2000/svg" width="32" height="32" viewBox="0 0 32 32"><defs><style>.cls-1,.cls-2,.cls-3{fill:none;stroke:#fff;stroke-miterlimit:10;}.cls-2{fill-rule:evenodd;}.cls-3{stroke-linecap:round;}</style></defs><title>mpg_web_icon_reddit</title><g id="reddit"><g id="_Group_"><circle class="cls-1" cx="20.5" cy="17.5" r="1.32"/><path class="cls-1" d="M5.03 17.11a3 3 0 1 1 4.11-4.03M22.86 13.08a3 3 0 1 1 4.11 4.03"/><circle class="cls-1" cx="25.5" cy="6.5" r="2"/><circle class="cls-1" cx="11.5" cy="17.5" r="1.32"/><path class="cls-2" d="M5.03 17.11a5.632 5.632 0 0 0-.53 2.39c0 4.41 5.16 8 11.5 8s11.5-3.59 11.5-8a5.632 5.632 0 0 0-.53-2.39 8.826 8.826 0 0 0-4.11-4.03 15.054 15.054 0 0 0-6.86-1.58 15.054 15.054 0 0 0-6.86 1.58 8.826 8.826 0 0 0-4.11 4.03z"/><path class="cls-1" d="M23.5 6.5c-2.92-.01-3.38-.66-4.79-.66-1.43 0-1.92.66-2.21 2.38-.12.72-.5 2.78-.5 2.78"/><path class="cls-3" d="M20.28 21.85a5.752 5.752 0 0 1-4.28 1.72 5.752 5.752 0 0 1-4.28-1.72"/></g><path class="cls-1" d="M.5.5h31v31h-31z"/></g></svg>