<svg xmlns="http://www.w3.org/2000/svg" width="32" height="32" viewBox="0 0 32 32"><defs><style>.cls-1{fill:none;stroke:#fff;stroke-miterlimit:10;}</style></defs><title>mpg_web_icon_twitter</title><path class="cls-1" d="M12.7 25a12.249 12.249 0 0 1-6.721-2.01l-1.791-1.17 2.122.255a7.932 7.932 0 0 0 .943.057 7.77 7.77 0 0 0 3.918-1.048 4.743 4.743 0 0 1-3.1-3.12l-.252-.8.5.1a4.831 4.831 0 0 1-1.748-3.788l.01-.847.8.451a4.876 4.876 0 0 1-.137-5.039l.365-.64.46.576a11.421 11.421 0 0 0 7.687 4.247 5.138 5.138 0 0 1 .023-1.079 4.692 4.692 0 0 1 4.664-4.145 4.681 4.681 0 0 1 3.233 1.308 7.818 7.818 0 0 0 2.249-.922l1.132-.686-.4 1.261a4.793 4.793 0 0 1-.641 1.308c.177-.064.351-.136.524-.214l1.566-.71-.942 1.439a9.113 9.113 0 0 1-2.008 2.19v.313c.008 6.25-4.656 12.713-12.456 12.713zM.5.5h31v31h-31z"/></svg>