<svg xmlns="http://www.w3.org/2000/svg" width="32" height="32" viewBox="0 0 32 32"><defs><style>.cls-1{fill:none;stroke:#fff;stroke-miterlimit:10;}</style></defs><title>mpg_web_icon_youtube</title><g id="youtube"><path class="cls-1" d="M16 25.5a67.71 67.71 0 0 1-9.731-.662 2.725 2.725 0 0 1-2.246-2.238 38.405 38.405 0 0 1-.523-6.6 38.382 38.382 0 0 1 .523-6.6 2.725 2.725 0 0 1 2.246-2.238 67.511 67.511 0 0 1 9.731-.662 67.511 67.511 0 0 1 9.731.662 2.684 2.684 0 0 1 2.199 2.238 37.442 37.442 0 0 1 .57 6.6 37.768 37.768 0 0 1-.57 6.6 2.661 2.661 0 0 1-2.2 2.236 67.71 67.71 0 0 1-9.73.664zM12.5 10.495v10.01l8.759-5.005-8.759-5.005zM.5.5h31v31h-31z"/></g></svg>